/* XPM */
static char *_ed500143eea4458dffaaf5f66ac920bFGIcJsthdaI6C2EO[] = {
/* columns rows colors chars-per-pixel */
"64 64 2 1 ",
"  c None",
". c #FCEA3A",
/* pixels */
"                                                                ",
"                                                                ",
"                                                                ",
"                                                                ",
"                                                                ",
"                                                                ",
"                                                                ",
"                                                                ",
"                                                                ",
"                          .............                         ",
"                       ...................                      ",
"                     ......................                     ",
"                    .........................                   ",
"                  ............................                  ",
"                 ..............................                 ",
"                ................................                ",
"               ..................................               ",
"              ....................................              ",
"              .....................................             ",
"             .......................................            ",
"            ........................................            ",
"            .........................................           ",
"            .........................................           ",
"           ..........................................           ",
"           ...........................................          ",
"          ............................................          ",
"          ............................................          ",
"          .............................................         ",
"          .............................................         ",
"          .............................................         ",
"          .............................................         ",
"          .............................................         ",
"          .............................................         ",
"          .............................................         ",
"          .............................................         ",
"          ............................................          ",
"          ............................................          ",
"           ...........................................          ",
"           ..........................................           ",
"            .........................................           ",
"            .........................................           ",
"            ........................................            ",
"             .......................................            ",
"              .....................................             ",
"              ....................................              ",
"               ..................................               ",
"                ................................                ",
"                 ..............................                 ",
"                  ............................                  ",
"                    .........................                   ",
"                     ......................                     ",
"                       ...................                      ",
"                          .............                         ",
"                                                                ",
"                                                                ",
"                                                                ",
"                                                                ",
"                                                                ",
"                                                                ",
"                                                                ",
"                                                                ",
"                                                                ",
"                                                                ",
"                                                                "
};
