/* XPM */
static char *e4c8db3fb5c542b1eb01f58b93a0b5e0lcPbX9R28bN0eo6w[] = {
/* columns rows colors chars-per-pixel */
"64 64 4 1 ",
"  c #307558",
". c #39944A",
"X c #78BA4B",
"o c #CCD66A",
/* pixels */
"XXXXXXXXXXXXXXXXXXXXXXXXXXXXXXXXXXXXXXXXXXXXXXXXXXXXXXXXXXXXXXXX",
"XXXXXXXXXXXXXXXXXXXXXXXXXXXXXXXXXXXXXXXXXXXXXXXXXXXXXXXXXXXXXXXX",
"XXXXXXXXXXXXXXXXXXXXXXXXXXXXXXXXXXXXXXXXXXXXXXXXXXXXXXXXXXXXXXXX",
"XXXXXXXXXXXXXXXXXXXXXXXXXXXXXXXXXXXXXXXXXXXXXXXXXXXXXXXXXXXXXXXX",
"XXXX..XXXXXXXXXXXXXXXXXXXXXXXXXXXXXX..XXXXXXXXXXXXXXXXXXXXXXXXXX",
"XXXX ooXXXXXXXXXXXXXXXXXXXXXXXXXXXXX ooXXXXXXXXXXXXXXXXXXXXXXXXX",
"XXXX.XooXXXXXXXXXXXXXooXXXXXXXXXXXXX.XooXXXXXXXXXXXXXooXXXXXXXXX",
"XXXXX..XXXXXXXXXXXX.ooXXoXXXXXXXXXXXX..XXXXXXXXXXXX.ooXXoXXXXXXX",
"XXXXXXXooXXXXXXXXXX  .XooXXXXXXXXXXXXXXooXXXXXXXXXX  .XooXXXXXXX",
"XXXXX.ooXXoXXXXXXXXXXX.oX.XXXXXXXXXXX.ooXXoXXXXXXXXXXX.oX.XXXXXX",
"XXXXX  .XooXXXXXXXXXXX.  XXXXXXXXXXXX  .XooXXXXXXXXXXX.  XXXXXXX",
"XXXXXXXX.oX.XXXXXXXXXXXXXXXXXXXXXXXXXXXX.oX.XXXXXXXXXXXXXXXXXXXX",
"XXXXXXXX  .XXXXXXXXXXXXXXXXXXXXXXXXXXXXX  .XXXXXXXXXXXXXXXXXXXXX",
"XXXXXXXXXXXXXXXXXXXXXXXXXXXXXXXXXXXXXXXXXXXXXXXXXXXXXXXXXXXXXXXX",
"XXXXXXXXXXXXXXXXXXXXXXXXXXXXXXXXXXXXXXXXXXXXXXXXXXXXXXXXXXXXXXXX",
"XXXXXXXXXXXXXXXXXXXXXXXXXXXXXXXXXXXXXXXXXXXXXXXXXXXXXXXXXXXXXXXX",
"XXXXXXXXXXXXXXXXXXXXXXXXXXXXXXXXXXXXXXXXXXXXXXXXXXXXXXXXXXXXXXXX",
"XXXXXXXXXXXXXXXXXXXXXXXXXXXXXXXXXXXXXXXXXXXXXXXXXXXXXXXXXXXXXXXX",
"XXXXXXXXXXXXXXXXXXXXXXXXXXXXXXXXXXXXXXXXXXXXXXXXXXXXXXXXXXXXXXXX",
"XXXXXXXXXXXXXXXXXXXXXXXXXXXXXXXXXXXXXXXXXXXXXXXXXXXXXXXXXXXXXXXX",
"XXXXXXXXXXXXXXXXXXXXXXXXXooXXXXXXXXXXXXXXXXXXXXXXXXXXXXXXooXXXXX",
"XXXXXXXXXXXXXXXXXXXXXoXXXXoo.XXXXXXXXXXXXXXXXXXXXXXXXoXXXXoo.XXX",
"XXXXXXXXXoXXXXXXXXXXXooXoX.  XXXXXXXXXXXXoXXXXXXXXXXXooXoX.  XXX",
"XXXXXXXoXooXXXXXXXXX.Xo.ooXXXXXXXXXXXXXoXooXXXXXXXXX.Xo.ooXXXXXX",
"XXXXXXoo.Xo.XXXXXXXXX.  Xo.XXXXXXXXXXXoo.Xo.XXXXXXXXX.  Xo.XXXXX",
"XXXXX.oXX.  XXXXXXXXXXXX.  XXXXXXXXXX.oXX.  XXXXXXXXXXXX.  XXXXX",
"XXXXX  .XXXXXXXXXXXXXXXXXXXXXXXXXXXXX  .XXXXXXXXXXXXXXXXXXXXXXXX",
"XXXXXXXXXXXXXXXXXXXXXXXXXXXXXXXXXXXXXXXXXXXXXXXXXXXXXXXXXXXXXXXX",
"XXXXXXXXXXXXXXXXXXXXXXXXXXXXXXXXXXXXXXXXXXXXXXXXXXXXXXXXXXXXXXXX",
"XXXXXXXXXXXXXXXXXXXXXXXXXXXXXXXXXXXXXXXXXXXXXXXXXXXXXXXXXXXXXXXX",
"XXXXXXXXXXXXXXXXXXXXXXXXXXXXXXXXXXXXXXXXXXXXXXXXXXXXXXXXXXXXXXXX",
"XXXXXXXXXXXXXXXXXXXXXXXXXXXXXXXXXXXXXXXXXXXXXXXXXXXXXXXXXXXXXXXX",
"XXXXXXXXXXXXXXXXXXXXXXXXXXXXXXXXXXXXXXXXXXXXXXXXXXXXXXXXXXXXXXXX",
"XXXXXXXXXXXXXXXXXXXXXXXXXXXXXXXXXXXXXXXXXXXXXXXXXXXXXXXXXXXXXXXX",
"XXXXXXXXXXXXXXXXXXXXXXXXXXXXXXXXXXXXXXXXXXXXXXXXXXXXXXXXXXXXXXXX",
"XXXXXXXXXXXXXXXXXXXXXXXXXXXXXXXXXXXXXXXXXXXXXXXXXXXXXXXXXXXXXXXX",
"XXXX..XXXXXXXXXXXXXXXXXXXXXXXXXXXXXX..XXXXXXXXXXXXXXXXXXXXXXXXXX",
"XXXX ooXXXXXXXXXXXXXXXXXXXXXXXXXXXXX ooXXXXXXXXXXXXXXXXXXXXXXXXX",
"XXXX.XooXXXXXXXXXXXXXooXXXXXXXXXXXXX.XooXXXXXXXXXXXXXooXXXXXXXXX",
"XXXXX..XXXXXXXXXXXX.ooXXoXXXXXXXXXXXX..XXXXXXXXXXXX.ooXXoXXXXXXX",
"XXXXXXXooXXXXXXXXXX  .XooXXXXXXXXXXXXXXooXXXXXXXXXX  .XooXXXXXXX",
"XXXXX.ooXXoXXXXXXXXXXX.oX.XXXXXXXXXXX.ooXXoXXXXXXXXXXX.oX.XXXXXX",
"XXXXX  .XooXXXXXXXXXXX.  XXXXXXXXXXXX  .XooXXXXXXXXXXX.  XXXXXXX",
"XXXXXXXX.oX.XXXXXXXXXXXXXXXXXXXXXXXXXXXX.oX.XXXXXXXXXXXXXXXXXXXX",
"XXXXXXXX  .XXXXXXXXXXXXXXXXXXXXXXXXXXXXX  .XXXXXXXXXXXXXXXXXXXXX",
"XXXXXXXXXXXXXXXXXXXXXXXXXXXXXXXXXXXXXXXXXXXXXXXXXXXXXXXXXXXXXXXX",
"XXXXXXXXXXXXXXXXXXXXXXXXXXXXXXXXXXXXXXXXXXXXXXXXXXXXXXXXXXXXXXXX",
"XXXXXXXXXXXXXXXXXXXXXXXXXXXXXXXXXXXXXXXXXXXXXXXXXXXXXXXXXXXXXXXX",
"XXXXXXXXXXXXXXXXXXXXXXXXXXXXXXXXXXXXXXXXXXXXXXXXXXXXXXXXXXXXXXXX",
"XXXXXXXXXXXXXXXXXXXXXXXXXXXXXXXXXXXXXXXXXXXXXXXXXXXXXXXXXXXXXXXX",
"XXXXXXXXXXXXXXXXXXXXXXXXXXXXXXXXXXXXXXXXXXXXXXXXXXXXXXXXXXXXXXXX",
"XXXXXXXXXXXXXXXXXXXXXXXXXXXXXXXXXXXXXXXXXXXXXXXXXXXXXXXXXXXXXXXX",
"XXXXXXXXXXXXXXXXXXXXXXXXXooXXXXXXXXXXXXXXXXXXXXXXXXXXXXXXooXXXXX",
"XXXXXXXXXXXXXXXXXXXXXoXXXXoo.XXXXXXXXXXXXXXXXXXXXXXXXoXXXXoo.XXX",
"XXXXXXXXXoXXXXXXXXXXXooXoX.  XXXXXXXXXXXXoXXXXXXXXXXXooXoX.  XXX",
"XXXXXXXoXooXXXXXXXXX.Xo.ooXXXXXXXXXXXXXoXooXXXXXXXXX.Xo.ooXXXXXX",
"XXXXXXoo.Xo.XXXXXXXXX.  Xo.XXXXXXXXXXXoo.Xo.XXXXXXXXX.  Xo.XXXXX",
"XXXXX.oXX.  XXXXXXXXXXXX.  XXXXXXXXXX.oXX.  XXXXXXXXXXXX.  XXXXX",
"XXXXX  .XXXXXXXXXXXXXXXXXXXXXXXXXXXXX  .XXXXXXXXXXXXXXXXXXXXXXXX",
"XXXXXXXXXXXXXXXXXXXXXXXXXXXXXXXXXXXXXXXXXXXXXXXXXXXXXXXXXXXXXXXX",
"XXXXXXXXXXXXXXXXXXXXXXXXXXXXXXXXXXXXXXXXXXXXXXXXXXXXXXXXXXXXXXXX",
"XXXXXXXXXXXXXXXXXXXXXXXXXXXXXXXXXXXXXXXXXXXXXXXXXXXXXXXXXXXXXXXX",
"XXXXXXXXXXXXXXXXXXXXXXXXXXXXXXXXXXXXXXXXXXXXXXXXXXXXXXXXXXXXXXXX",
"XXXXXXXXXXXXXXXXXXXXXXXXXXXXXXXXXXXXXXXXXXXXXXXXXXXXXXXXXXXXXXXX"
};
