/* XPM */
static char *result[] = {
/* columns rows colors chars-per-pixel */
"56 56 63 1 ",
"  c #000000",
". c #0D0300",
"X c #00000B",
"o c #0C0C0C",
"O c #100400",
"+ c #12050C",
"@ c #000013",
"# c #00001C",
"$ c #151515",
"% c gray11",
"& c #240D0E",
"* c #2C1100",
"= c #331500",
"- c #31130E",
"; c #000024",
": c #00002B",
"> c #000035",
", c #00003C",
"< c gray14",
"1 c #2C2C2C",
"2 c #542600",
"3 c #5A2900",
"4 c #6D3300",
"5 c #723500",
"6 c #7F3E01",
"7 c #010145",
"8 c #00004C",
"9 c #000051",
"0 c #02015B",
"q c #000064",
"w c #00006A",
"e c #000073",
"r c #00007B",
"t c #494949",
"y c #854102",
"u c #9E4C02",
"i c #A65104",
"p c #BB5B03",
"a c #C45F03",
"s c #C46003",
"d c #CD6504",
"f c #D06606",
"g c #EF7605",
"h c #F27705",
"j c #F47805",
"k c #FE7E06",
"l c #000184",
"z c #00008C",
"x c #000195",
"c c #00009E",
"v c #0000A3",
"b c #0101AC",
"n c #0101B4",
"m c #0100BC",
"M c #0100C3",
"N c #0101CD",
"B c #0000D4",
"V c #0100DC",
"C c #0101E4",
"Z c #0101EC",
"A c #0100F3",
"S c #0100FE",
"D c None",
/* pixels */
"DD           ooooo$oo                                  D",
"D                                                       ",
"  0cccvcccccccccccccccccccccccccccccccccccccccccccccc0  ",
"  cSSSSSSSSSSSSSSSSSSSSSSSSSSSSSSSSSSSSSSSSSSSSSSSSSSc  ",
"  cSSSSSSSSSSSSSSSSSSSSSSSSSSSSSSSSSSSSSSSSSSSSSSSSSSc  ",
"  cSSSSSSSSSSSSSSSSSSSSSSSSSSSSSSSSSSSSSSSSSSSSSSSSSSc  ",
"  cSSSSSSSSSSSSSSSSSSSSSSSSSSSSSSSSSSSSSSSSSSSSSSSSSSc  ",
"  cSSSSSSSSSSSSSSSSSSSSSSSSSSSSSSSSSSSSSSSSSSSSSSSSSSc  ",
"  cSSSSSSSSSSSSSSSSSSSSSSSSSSSSSSSSSSSSSSSSSSSSSSSSSSc  ",
"  cSSSSSSSSSSSSSSSSSSSSSSSSSSSSSSSSSSSSSSSSSSSSSSSSSSc  ",
"  cSSSSSSSSACVVVVVVVVVVZSSSSSSSSZVVVVVVVVVVCASSSSSSSSc  ",
"  cSSSSSSSSVlwwwwwwwwwwnSSSSSSSSnwwwwwwwwwwlVSSSSSSSSc  ",
"  cSSSSSSSSB0=44444442 vSSSSSSSSv 34454444*0BSSSSSSSSc  ",
"  cSSSSSSSSB06hjjjjjhp.vSSSSSSSSv.shjjjjjg40BSSSSSSSSc  ",
"  cSSSSSSSSB0ykkkkkkks.vSSSSSSSSvOfkkkkkkj50BSSSSSSSSc  ",
"  cSSSSSSSSB0ykkkkkkks.vSSSSSSSSvOfkkkkkkk50BSSSSSSSSc  ",
"  cSSSSSSSSB0ykkkkkkks.vSSSSSSSSvOfkkkkkkk50BSSSSSSSSc  ",
"  cSSSSSSSSB06kkkkkkks.vSSSSSSSSvOfkkkkkkk50BSSSSSSSSc  ",
"  cSSSSSSSSB0ykkkkkkks.vSSSSSSSSvOdkkkkkkk50BSSSSSSSSc  ",
"  cSSSSSSSSB0ykkkkkkks.vSSSSSSSSv.dkkkkkkk50BSSSSSSSSc  ",
"  cSSSSSSSSB04ddfffddu.vSSSSSSSSv.iddfdfds30BSSSSSSSSc  ",
"  cSSSSSSSSB0+-------&XvSSSSSSSSvX&-------+0BSSSSSSSSc  ",
"  cSSSSSSSSCczzzzzzzzzzMSSSSSSSSMzzzzzzzzzzcCSSSSSSSSc  ",
"  cSSSSSSSSSSSSSSSSSSSSSSSSSSSSSSSSSSSSSSSSSSSSSSSSSSc  ",
"  cSSSSSSSSSSSSSSSSSSSSSSSSSSSSSSSSSSSSSSSSSSSSSSSSSSc  ",
"  cSSSSSSSSSSSSSSSSSSSSSSSSSSSSSSSSSSSSSSSSSSSSSSSSSSc  ",
"  cSSSSSSSSSSCcCSSSSSSSSSSSSSSSSSSSSSSSSSSSSSSSSSSSSSc  ",
"  cASSSSSSSSVe;lCSSSSSSSSSSSSSZSSSSSSSSSSSSAZSSSSSSSSc  ",
"  9MSSSSSSSBq@ @zCSSSSSSSSSSANwMSSSSSSSSSSCllCSSSSSSCr  ",
"D  9MASSSSNq  o  lCSSSSSSSSAM8 9MSSSSSSSSZlX lVSSSSAcX D",
"DD  9MSSSM0  DD   lVSSSSSSAm>   8MSSSSSSZz@   rBSSAn:  D",
"DDD  9mZm9  DDDDD  rVSSSSAn,  D  8MSSSSCz#  D  rNSN8  DD",
"DDDD  8l7  DDDDDDD  eVSSZv>  DDD  9mSSCx;  DDD  qvq  DDD",
"DDDDD     DDDDDDDDD XwBZc>  DDDDD  9nVz;  DDDDD  :  DDDD",
"DDDDDD   DDDD   DDDD @9q:  DDDDDDD X>9;  DDDDDDD   DDDDD",
"DDDDDDD DDDD     DDDD  X  DDDD  DDD     DDDD  DDD  DDDDD",
"  DDDDDDDDD  7w;  DDDD   DDDD    DDD   DDDD    DDDDDDDD ",
"   DDDDDDD  9mCx#  DDDDDDDDD     DDDDDDDDD      DDDDDD  ",
"     DDDD  qMSSZc:  DDDDDDD Xwbr  DDDDDDD$X0bz;  DDD    ",
"          qNASSSZv:  DDDD   wVSVr  DDDD1$ 0NSZx; <t     ",
"  rn0X   wBSSSSSSAc:  DD  XrCSSSVr@  DXoXeVSSSZz:o% X   ",
"o cACv7#eBSSSSSSSSAc>    @lCSSSSSVw@   @rCSSSSSZz;#qnz  ",
"  cSSSVcVSSSSSSSSSSAc:  :xZSSSSSSSVw@ #zCSSSSSSSAxvCSc  ",
"o cSSSSSSSSSSSSSSSSSAc:>cZSSSSSSSSSVe>cZSSSSSSSSSASSSc  ",
"$ cSSSSSSSSSSSSSSSSSSAbnASSSSSSSSSSSVmZSSSSSSSSSSSSSSc  ",
"$ cSSSSSSSSSSSSSSSSSSSAASSSSSSSSSSSSSSSSSSSSSSSSSSSSSc  ",
"o cSSSSSSSSSSSSSSSSSSSSSSSSSSSSSSSSSSSSSSSSSSSSSSSSSSc  ",
"o cSSSSSSSSSSSSSSSSSSSSSSSSSSSSSSSSSSSSSSSSSSSSSSSSSSc  ",
"o cSSSSSSSSSSSSSSSSSSSSSSSSSSSSSSSSSSSSSSSSSSSSSSSSSSc  ",
"o cSSSSSSSSSSSSSSSSSSSSSSSSSSSSSSSSSSSSSSSSSSSSSSSSSSc  ",
"  cSSSSSSSSSSSSSSSSSSSSSSSSSSSSSSSSSSSSSSSSSSSSSSSSSSc  ",
"  cSSSSSSSSSSSSSSSSSSSSSSSSSSSSSSSSSSSSSSSSSSSSSSSSSSc  ",
"  cSSSSSSSSSSSSSSSSSSSSSSSSSSSSSSSSSSSSSSSSSSSSSSSSSSc  ",
"  0cccccccccccccccccccccccccccccccccccccccccccccccccc0  ",
"D                                                       ",
"DD                                                    DD"
};
