/* XPM */
static char *b8ac8d3bb1114525875d0cf70da3442aqP0gZCts1yiUXoFs[] = {
/* columns rows colors chars-per-pixel */
"64 64 160 2 ",
"   c None",
".  c #1F0E1C",
"X  c #251521",
"o  c #271824",
"O  c #2E1E2A",
"+  c #291925",
"@  c #2E212A",
"#  c #32232D",
"$  c #352631",
"%  c #372B33",
"&  c #3A2E35",
"*  c #3D3138",
"=  c #42353C",
"-  c #423B3C",
";  c #463941",
":  c #483B43",
">  c #4E4247",
",  c #4F4548",
"<  c #51454B",
"1  c #554A4E",
"2  c #52574E",
"3  c #564B50",
"4  c #5A4E52",
"5  c #5C5255",
"6  c #5D5C57",
"7  c #5F5458",
"8  c #62565A",
"9  c #64595C",
"0  c #4B684D",
"q  c #437A4B",
"w  c #5F6359",
"e  c #556E55",
"r  c #4E7D54",
"t  c #587258",
"y  c #67615F",
"u  c #685D60",
"i  c #6E6565",
"p  c #6D6A65",
"a  c #716768",
"s  c #736A6A",
"d  c #786E6D",
"f  c #697965",
"g  c #78716E",
"h  c #76726D",
"j  c #7D7674",
"k  c #7C7D74",
"l  c #807775",
"z  c #817977",
"x  c #867E7C",
"c  c #3C8B4A",
"v  c #38944A",
"b  c #488C53",
"n  c #528157",
"m  c #459452",
"M  c #489856",
"N  c #4F945A",
"B  c #4A9958",
"V  c #4C9056",
"C  c #56945E",
"Z  c #52995C",
"A  c #5D9563",
"S  c #608F64",
"D  c #648465",
"F  c #659469",
"G  c #6A9A6D",
"H  c #70906F",
"J  c #798774",
"K  c #749574",
"L  c #7A9578",
"P  c #7E997B",
"I  c #69A06E",
"U  c #6DA271",
"Y  c #71A073",
"T  c #78A57A",
"R  c #89827E",
"E  c #84957E",
"W  c #80A17E",
"Q  c #8C8582",
"!  c #8E8984",
"~  c #918986",
"^  c #948F89",
"/  c #8E9586",
"(  c #8D9F87",
")  c #909487",
"_  c #909987",
"`  c #96928A",
"'  c #9B968F",
"]  c #94998A",
"[  c #9C9790",
"{  c #9E9992",
"}  c #A29D95",
"|  c #A49F98",
" . c #89A886",
".. c #8FA189",
"X. c #8EAA89",
"o. c #8AA686",
"O. c #97AB90",
"+. c #9EA194",
"@. c #A0A996",
"#. c #A6A199",
"$. c #AAA59D",
"%. c #A2AF99",
"&. c #ACA99F",
"*. c #AAB19F",
"=. c #AEAAA1",
"-. c #B2AEA4",
";. c #ADB2A2",
":. c #B5B2A7",
">. c #B6B2A8",
",. c #BAB6AB",
"<. c #BDB9AE",
"1. c #BFBBB1",
"2. c #C1BEB2",
"3. c #C5C2B6",
"4. c #C6C3B8",
"5. c #C7C4B8",
"6. c #C7C4B9",
"7. c #C9C6BA",
"8. c #C9C6BA",
"9. c #CAC6BB",
"0. c #CBC8BC",
"q. c #CBC8BD",
"w. c #CBC8BF",
"e. c #CCCABD",
"r. c #CDCABE",
"t. c #CBC9BD",
"y. c #CECCC0",
"u. c #CFCCC0",
"i. c #CFCCC0",
"p. c #D0CDC1",
"a. c #D2CFC3",
"s. c #D1CEC2",
"d. c #D1CEC3",
"f. c #D2D0C3",
"g. c #D3D1C4",
"h. c #D4D2C5",
"j. c #D5D3C6",
"k. c #D4D2C6",
"l. c #D4D1C5",
"z. c #D6D4C7",
"x. c #D5D3C6",
"c. c #D7D5C8",
"v. c #D7D5C8",
"b. c #D8D5C9",
"n. c #D8D6C9",
"m. c #D9D6CB",
"M. c #D8D6C9",
"N. c #DAD8CB",
"B. c #DCD9CD",
"V. c #DDDACE",
"C. c #DCD9CD",
"Z. c #DFDCD2",
"A. c #DEDBD1",
"S. c #E0DDD2",
"D. c #E1DFD4",
"F. c #E1DED3",
"G. c #E4E1D7",
"H. c #E4E1D7",
"J. c #E6E3D9",
"K. c #E6E3D9",
/* pixels */
"                                . . . . . . . . . . . . . . . . . . . .                                                         ",
"                                . . . . . . . . . . . . . . . . . . . .                                                         ",
"                                # # # # $ $ $ $ $ $ & $ $ $ $ $ $ $ # #                                                         ",
"                              = : 3 4 5 8 8 8 9 9 9 9 9 8 8 8 8 7 4 1 : =                                                       ",
"                          . @ > 9 d z x Q Q ~ ~ ~ ~ ~ ~ ~ ~ Q x x z d 9 < O .                                                   ",
"                        . . # 1 d ^ $.-.-.,.2.2.2.2.2.2.2.2.2.>.=.$.` d 3 # . .                                                 ",
"                        $ $ ; u x &.2.5.r.a.z.z.l.b.l.z.a.b.a.t.2.2.$.R 9 ; $ $                                                 ",
"                      : 3 7 a x } :.5.t.r.k.z.z.b.l.b.z.l.l.a.p.t.9.,.} x i 8 3 :                                               ",
"                  . $ 3 a x ' | >.2.r.r.a.k.z.z.z.z.z.z.z.z.k.a.a.t.2.>.| } x a 1 $ . . . . . . . . . . . . .                   ",
"                . . $ 7 x =.2.4.0.p.g.g.k.z.z.z.z.z.z.z.z.z.k.k.a.a.a.t.2.2.=.x 8 $ . . . . . . . . . . . . . .                 ",
"                @ # ; i [ 2.b.v.z.z.z.z.z.z.z.z.z.z.z.z.z.z.z.z.z.z.z.z.b.z.2.` a : O O + X X + O # # # # # # O                 ",
"              = > 3 u x | 2.k.v.z.z.z.z.z.z.z.z.z.z.z.z.z.z.z.z.z.z.z.z.l.b.9.| R u : ; % @ @ * : 5 8 8 8 4 3 < =               ",
"          . O : 9 d x } >.y.k.b.z.z.z.z.z.z.z.z.z.z.z.z.z.z.z.z.z.z.z.z.z.z.0.>.} R s 8 : & * 1 i z ~ R z z d 9 : # .           ",
"        . . # 1 d ^ =.>.2.a.b.k.z.z.z.z.z.z.z.z.z.z.z.z.z.z.z.z.z.z.z.z.z.z.a.2.,.$.^ l 8 - - 9 R -.<.>.-.#.^ d 3 @ . .         ",
"        . . $ 4 z $.2.3.y.a.v.k.z.z.z.z.z.z.z.z.z.z.z.z.z.z.z.z.z.z.z.z.z.z.a.0.2.2.=.~ y , , f { 2.a.r.5.2.$.Q 9 = # #         ",
"        . . $ 5 x =.4.9.i.a.v.v.z.z.z.z.z.z.z.z.z.z.z.z.z.z.z.z.z.z.z.z.z.z.a.a.u.2.>.` l 6 8 R | 5.a.r.t.4.>.[ z u 1 > =       ",
"        . . $ 8 R ,.e.r.z.z.z.z.z.z.z.z.z.z.z.z.z.z.z.z.z.z.z.z.z.z.z.z.z.z.h.f.y.y.1.{ Q i p Q $.6.k.a.y.r.2.=.[ R d 9 > O . . ",
"        . . $ 8 R ,.r.z.r.z.z.z.z.z.z.z.z.z.z.z.z.z.z.z.z.z.z.z.z.z.z.z.z.z.k.k.y.k.4.=.^ j j ^ =.9.k.k.f.f.r.2.>.$.^ d 3 # . . ",
"        . . $ 8 ^ 2.r.r.z.z.z.z.z.z.z.z.z.z.z.z.z.z.z.z.z.z.z.z.z.z.z.z.z.z.z.z.v.v.y.;.[ Q Q [ :.q.z.z.z.z.f.r.5.2.#.z 4 # . . ",
"        . . # 8 R ,.r.r.r.b.z.z.z.z.z.z.z.z.z.z.z.z.z.z.z.z.z.z.z.z.z.z.z.z.z.z.v.v.y.>.{ ! ~ { >.r.z.z.z.z.h.y.t.3.-.x 8 $ . . ",
"        . . # 8 x =.3.e.r.n.r.n.z.z.z.z.z.z.z.z.z.z.z.z.z.k.v.k.z.z.z.z.z.z.z.z.k.v.q.,.=.^ ` =.,.r.z.z.z.z.h.f.t.t.>.R 8 # . . ",
"        . . # 3 z #.2.3.r.r.N.n.z.z.z.z.z.z.z.z.z.z.z.z.z.b.k.v.z.z.z.z.z.z.z.z.v.v.y.1.=.{ { =.1.y.z.z.z.z.k.h.a.a.2.Q 8 # . . ",
"        . . # 4 l #.2.2.e.r.r.z.z.z.z.z.z.z.z.z.z.z.z.z.z.z.b.v.z.z.z.z.z.z.k.v.v.v.y.1.-.{ | -.1.y.v.z.z.z.z.z.b.z.2.~ 9 $ . . ",
"        . . # 4 l #.,.3.3.8.e.r.r.z.z.z.z.z.z.z.z.z.z.z.z.z.a.v.z.z.z.z.v.k.v.k.v.v.y.1.-.| { -.1.y.z.z.z.z.z.z.z.z.2.~ 9 $ . . ",
"        . . # 3 l #.,.2.2.2.3.8.r.r.b.b.z.z.z.z.z.z.z.z.b.v.v.v.z.z.z.z.z.z.z.z.v.z.y.1.-.} { -.1.i.k.v.b.k.b.k.z.z.2.Q u $ . . ",
"        . . # 4 l #.,.,.,.2.2.3.e.z.z.z.z.z.z.z.z.z.z.z.k.v.k.v.z.z.z.z.z.z.z.z.v.v.y.1.=.| | -.1.i.b.b.k.b.k.b.z.z.2.~ 8 $ . . ",
"        . . # 4 l #.,.,.,.,.2.2.8.r.r.z.z.z.z.z.n.n.n.n.b.b.b.b.z.z.k.k.f.f.f.p.y.y.9.,.=.} | -.1.y.v.a.a.a.a.d.p.a.,.Q 8 $ . . ",
"        . . # 4 l #.,.,.,.,.,.2.5.8.r.r.z.r.z.n.N.B.B.B.V.V.V.b.n.z.k.f.y.e.8.5.4.2.,.-.$.{ { -.1.y.a.d.p.i.y.2.2.2.$.z 4 $ . . ",
"        . . # 4 l #.,.,.,.,.2.,.2.3.3.8.r.r.n.N.B.S.F.F.F.F.F.S.N.n.h.r.q.5.2.<.>.-.=.$.| [ } -.1.y.h.y.i.2.2.<.>.>.} d 3 # . . ",
"        . . # 4 l #.,.,.,.,.,.,.,.2.2.3.r.r.n.B.S.H.K.K.K.K.D.F.C.z.f.e.5.2.,.:.&.#.} { [ [ } -.1.y.h.r.2.2.2.>.=.| ~ a : $ . . ",
"        # # = 8 z #.:.:.,.,.,.,.,.,.2.2.r.r.z.z.N.V.S.S.F.S.V.V.z.p.8.5.<.,.-.$.| { [ [ { { #.-.2.y.p.q.2.2.,.-.$.} ~ i : O . . ",
"      = > 1 8 d R #.-.-.:.,.,.,.,.,.,.2.5.8.e.e.e.0.t.t.y.t.9.2.3.2.<.,.>.=.&.#.} { [ { } | &.,.3.p.h.y.y.2.2.,.-.$.^ s 1 # . . ",
". . # : 8 l x R ` { #.=.-.,.,.,.<.>.<.<.2.2.3.<.1.,.,.>.>.,.>.>.:.-.=.&.&.#.#.} } ' ' } #.$.>.<.5.a.g.g.r.r.5.2.,.-.' d 1 O . . ",
". . # 1 d ^ | } } { #.#.&.:.,.,.,.<.>.,.<.<.,.>.=.#.#.#.#.#.| #.} } } } } { { [ ' ' } | $.-.,.2.8.p.z.g.g.g.r.8.2.,.} j 3 # . . ",
". . # 5 l $.2.=.=.#.#.$.-.:.,.,.,.,.,.,.,.,.>.&.#.| { [ [ ' ' ' ' ' ' ' ' [ ' [ { { } $.-.,.2.3.0.g.z.z.z.z.g.0.3.2.$.z 4 # . . ",
". . # 5 x =.2.2.:.:.-.:.:.,.,.,.,.,.,.,.,.,.>.-.=.#.#.} { [ ' ' ' ' ' ' ' ' [ { } | $.-.,.2.3.0.r.g.z.z.z.z.g.r.0.3.=.x 8 $ . . ",
". . = 4 R :.8.8.3.3.2.2.,.,.,.,.,.,.,.,.,.,.,.:.-.=.$.#.} ' ' ' ' ' ' ' ' ' [ } #.&.-.>.2.8.r.r.g.g.z.z.z.z.g.g.u.y.>.R 8 # . . ",
". . # 7 R 2.r.a.r.r.8.3.3.,.,.,.,.,.,.,.,.,.,.,.>.>.-.=.#.{ ' ' [ ' ' ' ' [ { #.&.-.,.2.6.r.f.g.g.z.z.z.z.z.z.k.a.a.<.Q 8 # . . ",
". . = 5 ^ 2.n.N.n.n.r.r.5.2.2.,.<.,.2.<.,.<.<.,.<.<.,.-.$.} { } } } } } } } #.&.-.,.2.3.r.f.z.z.z.z.z.z.z.z.z.z.b.v.2.~ 9 $ . . ",
". . # 8 R 2.n.r.n.B.r.r.8.3.3.5.3.3.3.3.3.3.3.3.3.3.1.,.-.$.#.$.=.=.-.-.-.-.-.,.<.2.5.r.r.f.z.z.z.z.z.z.z.z.z.z.a.v.2.~ 9 $ . . ",
". . O 8 ~ 2.l.l.z.z.r.r.r.r.r.e.8.8.e.8.e.e.8.r.r.8.8.2.,.-.-.-.,.<.1.1.1.1.3.3.6.8.r.r.f.k.z.z.z.z.z.z.z.z.z.z.b.v.2.~ 8 $ . . ",
". . = 8 ~ 2.b.l.z.z.n.z.r.z.z.r.z.r.z.r.r.z.z.r.f.f.r.6.1.,.,.1.3.8.y.y.y.y.r.y.p.f.f.h.k.k.z.z.z.z.z.z.z.z.z.z.b.k.<.~ 8 $ . . ",
". . = 8 Q 2.b.b.z.z.z.z.N.z.z.z.z.z.z.z.z.z.z.z.z.z.f.8.2.,.,.2.8.h.v.v.z.z.z.z.z.z.z.z.z.z.z.z.z.z.z.z.z.z.z.z.k.z.2.~ u $ . . ",
". . O 8 ~ 2.b.l.z.z.z.z.z.z.z.z.z.z.z.z.z.z.z.z.z.v.p.6.<.-.>.<.6.y.z.v.z.z.z.z.z.z.z.z.z.z.z.z.z.z.z.z.z.z.z.z.z.z.2.~ 8 $ . . ",
". . $ 8 ~ 2.a.l.z.z.z.z.z.z.z.z.z.z.z.z.z.z.z.z.z.z.p.3.>.&.&.>.3.y.z.z.z.z.z.z.z.z.z.z.z.z.z.z.z.z.z.z.v.k.k.z.b.k.2.~ u $ . . ",
". . $ 8 ~ 2.b.b.z.z.z.z.z.z.z.z.z.z.z.z.z.z.z.z.z.z.y.2.-.#.#.:.2.y.z.z.z.z.z.z.z.z.z.v.z.z.z.n.z.z.z.z.v.k.b.k.k.k.1.~ 8 $ . . ",
"+ X = 8 ~ 2.a.a.z.z.z.z.z.N.N.z.N.z.n.z.z.z.z.h.h.p.9.<.-.} } =.<.q.f.h.h.z.z.z.v.n.n.n.n.N.n.n.n.n.b.b.v.v.k.k.k.d.<.Q 8 $ . . ",
"$ # : u ~ >.r.r.z.r.z.N.N.N.V.V.V.V.C.N.N.z.z.r.y.r.3.,.&.} } &.,.3.r.y.p.k.z.v.N.C.C.C.C.C.C.C.C.C.B.N.b.v.k.d.u.y.>.R 8 $ . . ",
"= = < s ) -.3.e.r.r.z.N.B.S.D.D.Z.Z.Z.A.m.v.h.y.q.6.1.:.&.{ } &.-.2.5.t.p.a.b.B.F.D.D.D.D.D.D.D.F.F.F.S.m.v.k.i.9.4.-.x 4 $ . . ",
"< < 5 g ^ =.2.3.e.n.b.B.S.H.K.K.K.K.K.Z.A.v.d.y.3.1.,.=.#.{ { #.-.,.2.2.t.a.b.B.F.D.K.D.K.K.K.K.K.K.F.S.V.b.a.y.4.1.#.z 4 # . . ",
"2 2 y k ) =.<.2.8.r.z.b.B.V.S.S.m.A.A.v.k.y.y.3.1.,.=.=.#.{ { #.&.>.2.2.0.r.l.m.S.F.F.F.D.S.S.V.S.A.S.n.v.i.i.2.1.,.} z 5 % o o ",
"0 0 e H _ =.,.2.3.8.8.e.t.t.t.0.y.y.y.9.3.1.1.>.:.=.&.#.} { { #.&.>.<.2.2.0.t.a.a.a.b.a.p.r.0.0.y.y.t.4.2.2.1.>.>.=.{ z 8 = # # ",
"q q n H ( &.,.2.2.2.2.2.2.,.,.,.,.>.>.>.:.=.=.=.$.#.#.} { ' { #.=.:.2.,.2.2.2.2.9.9.2.2.2.,.,.,.>.>.>.>.-.-.=.=.$.#.` z 9 , = = ",
"c c V G  .*.,.<.,.2.,.-.$.| | | #.#.#.{ #.#.} { { { { { { ' { #.=.:.,.,.,.2.2.2.2.2.2.>.=.$.#.} | | } } | } } } } } ` z p 5 , , ",
"v v M I X.*.<.,.,.,.>.-.| } } [ [ ' ' ' ' ' ' ' [ ' ' ` ] / ] +.$.:.,.,.,.,.,.,.,.,.>.=.#.{ [ ' [ [ [ ' [ [ [ ` ` [ ~ k p w 2 2 ",
"v v Z T O.;.,.,.,.,.>.-.=.$.| } { [ ' ' ' ' ' [ [ ' ] / E L P ..@.-.,.,.,.,.,.,.,.,.>.=.@.{ ' ' [ [ [ ' [ [ [ [ ' ' ) J f e 0 0 ",
"       .%.>.,.,.,.,.:.-.-.=.$.#.} { ' ' ' ' ' ' ' ' ` E K F G W O.;.,.,.,.2.,.,.,.,.:.=.#.{ ' ' ' ' ' [ ' ' ' ' [ ' ) J D r q q ",
"        :.:.,.,.,.,.,.,.,.:.-.$.#.{ ' ' ' ' ' ' ' [ ) L F Z C Y X.*.,.,.,.,.,.,.,.,.,.=.#.{ [ ' ' ' ' ' ' ' ' ' ' ' / K S b c c ",
"        ,.,.:.,.,.,.,.,.,.:.:.=.#.{ ' ' ' ' ' ' ' ' / K A m M I  .*.,.,.,.,.,.,.,.,.:.=.#.{ [ ' ' [ ' ' ' ' ' ` ] ) E K A m v v ",
"          ,.,.2.,.,.,.,.,.2.:.=.#.{ ' ' ' ' ' ' ' ' ) K A m M I  .*.,.,.,.,.,.,.,.,.:.=.#.{ [ ' ' ' ' ' ' ' ` / E L H F C m v v ",
"                                                                      2.:.,.,.,.,.,.:.=.$.{ ' ' ' [ ' ' ' ' ] E K F A C N       ",
"                                                                        ,.,.:.2.,.<.:.=.@.{ ' [ ' ' ' ' ' ' ) L F N m m         ",
"                                                                        ,.:.:.2.<.>.>.=.#.} ' ' [ ' [ ' ' ' / K A m v v         ",
"                                                                        ,.:.2.:.>.<.>.&.#.[ ' ' ' ' ' ' [ [ _ K A m v v         "
};
